# xmcd CD database file
#
# Track frame offsets:
#	150
#	12717
#	32041
#	43730
#	54054
#	67916
#	81778
#	98847
#	112785
#	125226
#	137460
#	150932
#	163624
#	175648
#	196253
#	209921
#
# Disc length: 3021 seconds
#
# Revision: 0
# Processed by: cddbd v1.5.1PL2 Copyright (c) Steve Scherf et al.
# Submitted via: CDex 1.51
#
DISCID=cd0bcb10
DTITLE=LOUISE MORRISSEY - LET'S SING TOGETHER
DYEAR=1900
DGENRE=Country
TTITLE0=LET'S SING TOGETHER
TTITLE1=ROSE OF ALLENDALE
TTITLE2=ON MY MIND
TTITLE3=TENNESSEE WALTZ
TTITLE4=LET THE REST OF THE WORLD GO BY
TTITLE5=45 YEARS
TTITLE6=AMAZING GRACE
TTITLE7=LAY DOWN BESIDE ME
TTITLE8=FLYING HOME TO AHERLOW
TTITLE9=WHEN I WAS YOURS
TTITLE10=TIME ON MY HANDS
TTITLE11=ROSES AND VIOLETS
TTITLE12=BRIGHT SILVERY LIGHT OF THE MOON
TTITLE13=GREEN WILLOW
TTITLE14=IT DOESN'T MATTER ANYMORE
TTITLE15=CLIFFS OF BACCALIEU
EXTD=
EXTT0=
EXTT1=
EXTT2=
EXTT3=
EXTT4=
EXTT5=
EXTT6=
EXTT7=
EXTT8=
EXTT9=
EXTT10=
EXTT11=
EXTT12=
EXTT13=
EXTT14=
EXTT15=
PLAYORDER=
